HIERARCHY
ROOT Hips
{
 OFFSET 0.000000 0.000000 0.000000
 CHANNELS 6 Xposition Yposition Zposition Yrotation Xrotation Zrotation
 JOINT Chest
 {
  OFFSET 0.000000 9.585900 0.002600
  CHANNELS 3 Yrotation Xrotation Zrotation
  JOINT Chest2
  {
   OFFSET 0.000000 9.601200 -0.005300
   CHANNELS 3 Yrotation Xrotation Zrotation
   JOINT Chest3
   {
    OFFSET 0.000000 9.561800 0.000000
    CHANNELS 3 Yrotation Xrotation Zrotation
    JOINT Chest4
    {
     OFFSET 0.000000 9.552100 0.000000
     CHANNELS 3 Yrotation Xrotation Zrotation
     JOINT Neck
     {
      OFFSET 0.000000 14.453000 0.000000
      CHANNELS 3 Yrotation Xrotation Zrotation
      JOINT Head
      {
       OFFSET 0.000000 8.936500 -0.011300
       CHANNELS 3 Yrotation Xrotation Zrotation
       End Site
       {
        OFFSET 0.000000 17.073600 -0.006000
       }
      }
     }
     JOINT RightCollar
     {
      OFFSET -2.921100 9.558500 0.000000
      CHANNELS 3 Yrotation Xrotation Zrotation
      JOINT RightShoulder
      {
       OFFSET -13.519700 0.000000 0.000000
       CHANNELS 3 Yrotation Xrotation Zrotation
       JOINT RightElbow
       {
        OFFSET 0.000000 -29.696600 0.000000
        CHANNELS 3 Yrotation Xrotation Zrotation
        JOINT RightWrist
        {
         OFFSET 0.000000 -24.004700 0.000000
         CHANNELS 3 Yrotation Xrotation Zrotation
         End Site
         {
          OFFSET 0.000000 -17.728500 0.000000
         }
        }
       }
      }
     }
     JOINT LeftCollar
     {
      OFFSET 2.921100 9.558500 0.000000
      CHANNELS 3 Yrotation Xrotation Zrotation
      JOINT LeftShoulder
      {
       OFFSET 13.519700 0.000000 0.000000
       CHANNELS 3 Yrotation Xrotation Zrotation
       JOINT LeftElbow
       {
        OFFSET 0.000000 -29.696600 0.000000
        CHANNELS 3 Yrotation Xrotation Zrotation
        JOINT LeftWrist
        {
         OFFSET 0.000000 -24.004700 0.000000
         CHANNELS 3 Yrotation Xrotation Zrotation
         End Site
         {
          OFFSET 0.000000 -17.728500 0.000000
         }
        }
       }
      }
     }
    }
   }
  }
 }
 JOINT RightHip
 {
  OFFSET -7.771700 -0.012900 -0.001300
  CHANNELS 3 Yrotation Xrotation Zrotation
  JOINT RightKnee
  {
   OFFSET 0.000000 -40.869800 0.001200
   CHANNELS 3 Yrotation Xrotation Zrotation
   JOINT RightAnkle
   {
    OFFSET 0.000000 -39.717900 0.002100
    CHANNELS 3 Yrotation Xrotation Zrotation
    JOINT RightToe
    {
     OFFSET 0.000000 -4.965400 11.033500
     CHANNELS 3 Yrotation Xrotation Zrotation
     End Site
     {
      OFFSET 0.000000 -1.423100 5.872300
     }
    }
   }
  }
 }
 JOINT LeftHip
 {
  OFFSET 7.771700 -0.012900 -0.001300
  CHANNELS 3 Yrotation Xrotation Zrotation
  JOINT LeftKnee
  {
   OFFSET 0.000000 -40.869800 0.001200
   CHANNELS 3 Yrotation Xrotation Zrotation
   JOINT LeftAnkle
   {
    OFFSET 0.000000 -39.717900 0.002100
    CHANNELS 3 Yrotation Xrotation Zrotation
    JOINT LeftToe
    {
     OFFSET 0.000000 -4.965400 11.033500
     CHANNELS 3 Yrotation Xrotation Zrotation
     End Site
     {
      OFFSET 0.000000 -1.423100 5.872300
     }
    }
   }
  }
 }
}
MOTION
Frames: 15
Frame Time: 0.008333
0.000000 85.388000 0.000000 0.000000 -5.767877 0.000000 0.000000 11.653817 0.000000 0.000000 -5.885947 0.000000 0.000000 -0.000000 0.000000 0.000000 -0.000000 0.000000 0.000000 12.528835 0.000000 0.000000 0.711642 0.000000 0.000000 -0.000000 0.000000 0.000000 0.000000 -90.000000 0.000000 -2.309062 0.000000 0.000000 2.309062 0.000000 0.000000 -0.000000 0.000000 0.000000 -0.000000 90.000000 0.000000 -2.309062 0.000000 0.000000 2.309062 0.000000 0.000000 8.520406 0.000000 0.000000 1.905762 0.000000 -0.000000 -4.658285 0.000000 0.000000 -0.000000 0.000000 0.000000 8.520406 0.000000 0.000000 1.905762 0.000000 -0.000000 -4.658285 0.000000 0.000000 -0.000000 0.000000
-18.469508 57.989456 13.132402 174.215364 -46.824198 -4.016766 4.842626 22.285775 2.973325 2.525969 12.788360 1.488384 3.231515 15.973867 1.963800 2.525893 12.788421 1.488359 3.778247 16.849353 3.975884 5.642240 -4.533354 6.189011 3.444916 7.642707 1.216472 -9.293729 -17.962604 -4.262311 -79.352295 -52.532907 126.637097 10.765263 8.641965 9.594309 -7.541471 4.674653 -0.223863 7.368603 -19.773403 1.590763 71.207906 -49.736718 -117.735026 -12.113965 14.243381 -27.851578 3.788607 -25.006335 0.402110 -36.392761 73.087102 -40.197204 5.954610 -13.629238 11.646919 -0.062871 -0.147887 0.006393 -3.002267 -22.131676 9.547284 91.239033 83.771633 91.690875 0.297427 -22.721824 -16.521017 0.067663 0.039621 0.020962
-18.469433 57.982539 13.120858 174.213905 -46.752456 -3.989723 4.843150 22.301039 2.977775 2.515666 12.746320 1.470569 3.247840 16.000934 1.988290 2.517511 12.771840 1.480568 3.771870 16.812077 4.044676 5.567289 -4.645489 6.170136 3.431478 7.610616 1.196390 -9.304927 -17.956525 -4.253264 -78.633799 -51.967649 126.440934 10.349927 8.420774 10.159901 -7.528937 4.636302 -0.246604 7.200985 -19.870268 1.694184 69.472591 -47.988771 -117.440266 -11.853193 13.967372 -27.970243 3.795950 -25.082588 0.378291 -36.496443 73.105045 -40.321423 5.952622 -13.663588 11.657020 -0.071532 -0.136873 0.004135 -2.995924 -22.199387 9.513454 91.356702 83.777520 91.825009 0.309198 -22.750053 -16.537768 0.077073 0.052985 0.025487
-18.466915 57.974903 13.109039 174.205246 -46.669579 -3.970383 4.854740 22.294934 2.997842 2.503501 12.710437 1.452424 3.264316 16.014469 2.012134 2.517379 12.762293 1.483342 3.735295 16.762432 4.055033 5.494990 -4.737040 6.201317 3.421309 7.593057 1.181119 -9.310011 -17.959312 -4.259122 -77.774941 -51.283267 126.187157 9.857977 8.187711 10.753491 -7.529032 4.593559 -0.281113 7.094635 -19.914169 1.750437 67.929175 -46.414363 -117.280003 -11.605567 13.734016 -28.124492 3.802324 -25.169944 0.366125 -36.567451 73.114641 -40.405108 5.949969 -13.685432 11.659539 -0.075778 -0.126075 0.002686 -2.996043 -22.278026 9.493337 91.489120 83.778686 91.975156 0.318176 -22.777067 -16.556015 0.083278 0.063912 0.027028
-18.464382 57.967158 13.097261 174.198677 -46.580840 -3.952965 4.865293 22.274156 3.017809 2.519977 12.746216 1.486417 3.232220 15.945729 1.973803 2.534831 12.764176 1.505336 3.685210 16.710525 4.057130 5.418131 -4.814278 6.235985 3.413323 7.576494 1.176768 -9.242951 -17.947024 -4.287926 -76.882528 -50.516220 125.909504 9.307930 7.973898 11.362823 -7.548518 4.544701 -0.313066 6.906054 -19.991120 1.843879 66.735306 -45.036693 -117.141915 -11.373259 13.560168 -28.330745 3.802280 -25.265351 0.358774 -36.649999 73.123355 -40.505932 5.950559 -13.704357 11.661903 -0.073827 -0.118996 0.002783 -2.999885 -22.363547 9.475665 91.601884 83.776469 92.102500 0.318473 -22.799962 -16.560275 0.096976 0.071923 0.018559
-18.463883 57.960416 13.085278 174.198596 -46.495967 -3.930003 4.867669 22.250011 3.025470 2.525182 12.743742 1.499922 3.200536 15.901006 1.936896 2.561057 12.760320 1.534293 3.645456 16.675569 4.070138 5.339126 -4.878480 6.273419 3.389326 7.573087 1.157963 -9.190673 -17.940847 -4.300321 -75.856036 -49.652245 125.595898 8.738840 7.796333 11.975982 -7.555437 4.516658 -0.335554 6.725943 -20.048763 1.916456 65.831818 -43.956886 -117.053658 -11.209444 13.417997 -28.544332 3.805077 -25.355840 0.346210 -36.742091 73.134897 -40.626229 5.943069 -13.727067 11.674810 -0.072936 -0.113995 0.002643 -3.010147 -22.442967 9.441224 91.665749 83.772068 92.177550 0.335710 -22.816831 -16.577689 0.097158 0.080955 0.017470
-18.463191 57.955736 13.073377 174.210069 -46.422811 -3.920008 4.865948 22.231025 3.039098 2.524272 12.726430 1.504124 3.198060 15.887734 1.940429 2.561865 12.734556 1.539229 3.604826 16.647059 4.084573 5.258203 -4.930724 6.314002 3.430149 7.553954 1.188237 -9.218853 -17.920935 -4.359163 -74.756728 -48.730866 125.284540 8.195843 7.653283 12.577783 -7.560061 4.494219 -0.357304 6.593846 -20.070490 1.955988 65.239346 -43.243697 -117.026744 -11.134961 13.293426 -28.748533 3.813628 -25.433836 0.350122 -36.884187 73.147679 -40.800903 5.917988 -13.754853 11.706294 -0.068347 -0.114112 0.004720 -3.036147 -22.508443 9.400264 91.719009 83.762353 92.259626 0.357860 -22.830722 -16.626765 0.115305 0.083817 0.027621
-18.463916 57.950828 13.063929 174.225460 -46.343719 -3.910236 4.860237 22.202085 3.050277 2.511342 12.694978 1.488661 3.235973 15.885769 1.996331 2.533571 12.708850 1.518589 3.560966 16.642981 4.075098 5.217108 -4.953897 6.335221 3.424200 7.547859 1.194852 -9.205439 -17.906641 -4.401262 -73.674157 -47.797162 125.000069 7.707526 7.543416 13.153670 -7.566202 4.482543 -0.382188 6.491732 -20.087284 1.985897 65.017161 -42.919806 -117.055665 -11.136891 13.191720 -28.956154 3.822825 -25.512966 0.332192 -36.940999 73.164090 -40.873285 5.898481 -13.779524 11.725422 -0.070632 -0.109031 0.004153 -3.054515 -22.584897 9.369431 91.740012 83.760720 92.296556 0.366774 -22.835797 -16.650310 0.124958 0.084880 0.035608
-18.465504 57.946264 13.056642 174.233526 -46.264316 -3.896125 4.855863 22.170533 3.057959 2.503884 12.663845 1.477737 3.254447 15.877231 2.030352 2.522549 12.690784 1.514186 3.529643 16.618141 4.108942 5.127143 -4.990963 6.396662 3.413318 7.545548 1.193857 -9.072693 -17.911713 -4.429619 -72.749181 -46.930304 124.716867 7.283452 7.468935 13.688304 -7.570577 4.472317 -0.398305 6.438486 -20.083554 1.986293 65.140834 -42.988372 -117.163483 -11.196825 13.106987 -29.170448 3.831418 -25.592098 0.309476 -36.953426 73.179034 -40.898410 5.889794 -13.796465 11.728810 -0.075443 -0.101794 -0.002240 -3.069217 -22.662302 9.342768 91.752994 83.754948 92.313978 0.372430 -22.839130 -16.658597 0.127113 0.087117 0.036804
-18.469046 57.942510 13.050777 174.234154 -46.189655 -3.870631 4.848822 22.143666 3.052526 2.516564 12.660008 1.503983 3.236663 15.845662 2.017203 2.509915 12.678067 1.500113 3.517372 16.604329 4.134057 5.057814 -5.020859 6.491383 3.428739 7.527799 1.226443 -8.979985 -17.922016 -4.466404 -71.931017 -46.131683 124.490171 6.925508 7.425514 14.167173 -7.556468 4.468521 -0.396653 6.381227 -20.109983 2.006925 65.572000 -43.361656 -117.316046 -11.305034 13.042541 -29.395443 3.849549 -25.666656 0.280964 -36.957480 73.193155 -40.915538 5.869180 -13.809207 11.741670 -0.081544 -0.097251 -0.005177 -3.088634 -22.731067 9.299278 91.736168 83.734145 92.294166 0.382681 -22.846912 -16.658090 0.125100 0.095251 0.022706
-18.474052 57.939665 13.046122 174.236150 -46.120823 -3.842480 4.837375 22.122668 3.041303 2.511382 12.630091 1.493702 3.243886 15.844268 2.038584 2.499918 12.661701 1.486387 3.517109 16.599759 4.193120 5.015624 -5.017981 6.532976 3.454002 7.502622 1.273735 -8.910847 -17.931121 -4.513101 -71.267277 -45.427739 124.319911 6.639556 7.400304 14.572455 -7.508173 4.485100 -0.367799 6.300406 -20.145368 2.006450 66.266117 -43.993295 -117.537096 -11.443516 13.016724 -29.626460 3.880399 -25.734017 0.249066 -36.976649 73.203525 -40.940966 5.839119 -13.820532 11.751662 -0.079398 -0.093101 0.004240 -3.129805 -22.791393 9.237528 91.706830 83.694636 92.255488 0.423607 -22.845189 -16.684365 0.103078 0.103263 0.012367
-18.473135 57.940154 13.041474 174.240206 -46.076114 -3.854733 4.841440 22.121149 3.073523 2.516156 12.634242 1.513717 3.229315 15.811568 2.019558 2.525052 12.655597 1.536286 3.481950 16.604689 4.201643 4.988906 -5.007334 6.573476 3.422224 7.487835 1.232097 -8.825700 -17.953786 -4.515684 -70.776187 -44.845874 124.187363 6.431964 7.383000 14.874137 -7.519731 4.487745 -0.401426 6.226446 -20.172349 2.021304 67.159075 -44.810543 -117.804877 -11.587327 13.019414 -29.895850 3.911008 -25.779773 0.260969 -37.034437 73.205390 -40.985615 5.819194 -13.817571 11.755847 -0.070036 -0.099567 0.008648 -3.146990 -22.832298 9.238636 91.669012 83.689189 92.240055 0.420038 -22.838983 -16.704383 0.116742 0.094461 0.022502
-18.474472 57.940843 13.037972 174.241775 -46.033861 -3.855196 4.842817 22.120777 3.094815 2.511159 12.609907 1.503969 3.234749 15.817106 2.039447 2.523689 12.647556 1.540532 3.481891 16.616262 4.229337 4.979447 -4.986010 6.624931 3.442935 7.455465 1.264943 -8.754068 -17.974570 -4.553174 -70.452751 -44.412839 124.075318 6.306043 7.363723 15.061278 -7.505215 4.497056 -0.397460 6.122382 -20.202143 2.039036 68.143441 -45.704553 -118.085823 -11.705629 13.048515 -30.241376 3.922783 -25.821195 0.256651 -37.047027 73.207093 -40.994259 5.834653 -13.818472 11.738076 -0.060949 -0.100967 0.011343 -3.175831 -22.868159 9.219139 91.620551 83.673085 92.197947 0.440200 -22.831410 -16.723455 0.120481 0.090524 0.013708
-18.482117 57.935458 13.040724 174.238183 -45.943892 -3.819916 4.829220 22.064253 3.072243 2.509440 12.612570 1.510693 3.237732 15.814927 2.058640 2.517272 12.636152 1.537906 3.488633 16.635920 4.254908 4.983540 -4.949747 6.669995 3.464756 7.425887 1.297087 -8.730344 -17.986800 -4.607089 -70.279542 -44.113075 124.010229 6.249157 7.334803 15.173488 -7.491622 4.510492 -0.393424 5.993581 -20.235782 2.057966 69.071530 -46.550160 -118.344579 -11.806961 13.129769 -30.591083 3.968893 -25.910490 0.217418 -37.071680 73.209255 -41.018654 5.805721 -13.830368 11.757379 -0.059449 -0.086452 0.007776 -3.208949 -22.954477 9.145745 91.583773 83.626390 92.158563 0.485238 -22.831509 -16.749233 0.100533 0.103616 0.002163
-18.486445 57.935310 13.040236 174.234044 -45.898065 -3.802913 4.824346 22.029708 3.060561 2.516600 12.635902 1.537317 3.226824 15.808181 2.065021 2.515590 12.631326 1.543872 3.502923 16.663682 4.277986 5.002732 -4.898534 6.707914 3.463107 7.404800 1.282342 -8.633857 -18.021507 -4.586015 -70.259501 -43.985421 123.890418 6.235455 7.303625 15.257909 -7.491675 4.505634 -0.413453 5.858277 -20.249583 2.101446 69.832695 -47.231855 -118.536460 -11.970352 13.259279 -30.899613 4.019775 -25.953535 0.201021 -37.105842 73.205471 -41.048997 5.774489 -13.828606 11.784767 -0.059596 -0.084924 0.003120 -3.222408 -22.997104 9.110770 91.549277 83.608795 92.133498 0.499559 -22.826060 -16.765944 0.098018 0.101141 0.001306
